<svg xmlns="http://www.w3.org/2000/svg" xmlns:xlink="http://www.w3.org/1999/xlink" width="600" zoomAndPan="magnify" viewBox="0 0 450 449.999984" height="600" preserveAspectRatio="xMidYMid meet" version="1.0"><defs><clipPath id="5565bed5bb"><path d="M 206.765625 39.511719 L 271.265625 39.511719 L 271.265625 78.511719 L 206.765625 78.511719 Z M 206.765625 39.511719 " clip-rule="nonzero"/></clipPath><clipPath id="7f3b3aa336"><path d="M 120.832031 88.347656 L 269.777344 88.347656 L 269.777344 410.488281 L 120.832031 410.488281 Z M 120.832031 88.347656 " clip-rule="nonzero"/></clipPath><clipPath id="dc2c15fd71"><path d="M 120.832031 88.347656 L 195.304688 88.347656 L 195.304688 410.488281 L 120.832031 410.488281 Z M 120.832031 88.347656 " clip-rule="nonzero"/></clipPath><clipPath id="2dcdb7e3d1"><path d="M 139.015625 58.90625 L 195.304688 58.90625 L 195.304688 88.347656 L 139.015625 88.347656 Z M 139.015625 58.90625 " clip-rule="nonzero"/></clipPath><clipPath id="8e7d7133e9"><path d="M 226.40625 355.539062 L 310.273438 355.539062 L 310.273438 410.488281 L 226.40625 410.488281 Z M 226.40625 355.539062 " clip-rule="nonzero"/></clipPath><clipPath id="e96264e382"><path d="M 139.207031 141.644531 L 160.859375 141.644531 L 160.859375 163.292969 L 139.207031 163.292969 Z M 139.207031 141.644531 " clip-rule="nonzero"/></clipPath><clipPath id="6bc1eed076"><path d="M 227.777344 141.644531 L 249.425781 141.644531 L 249.425781 163.292969 L 227.777344 163.292969 Z M 227.777344 141.644531 " clip-rule="nonzero"/></clipPath><clipPath id="955fc5ebf6"><path d="M 139.207031 191.003906 L 160.859375 191.003906 L 160.859375 212.652344 L 139.207031 212.652344 Z M 139.207031 191.003906 " clip-rule="nonzero"/></clipPath><clipPath id="210c78eea5"><path d="M 139.207031 238.632812 L 160.859375 238.632812 L 160.859375 260.28125 L 139.207031 260.28125 Z M 139.207031 238.632812 " clip-rule="nonzero"/></clipPath><clipPath id="4c643052dc"><path d="M 139.207031 286.261719 L 160.859375 286.261719 L 160.859375 307.910156 L 139.207031 307.910156 Z M 139.207031 286.261719 " clip-rule="nonzero"/></clipPath><clipPath id="f98afc26d7"><path d="M 139.207031 333.890625 L 160.859375 333.890625 L 160.859375 355.539062 L 139.207031 355.539062 Z M 139.207031 333.890625 " clip-rule="nonzero"/></clipPath><clipPath id="3cca7e5d10"><path d="M 227.777344 286.261719 L 249.425781 286.261719 L 249.425781 307.910156 L 227.777344 307.910156 Z M 227.777344 286.261719 " clip-rule="nonzero"/></clipPath><clipPath id="1ef457bec7"><path d="M 227.777344 238.632812 L 249.425781 238.632812 L 249.425781 260.28125 L 227.777344 260.28125 Z M 227.777344 238.632812 " clip-rule="nonzero"/></clipPath><clipPath id="94e4c45823"><path d="M 227.777344 191.003906 L 249.425781 191.003906 L 249.425781 212.652344 L 227.777344 212.652344 Z M 227.777344 191.003906 " clip-rule="nonzero"/></clipPath><clipPath id="6ae2fcc3a3"><path d="M 184.480469 286.464844 L 206.128906 286.464844 L 206.128906 308.113281 L 184.480469 308.113281 Z M 184.480469 286.464844 " clip-rule="nonzero"/></clipPath><clipPath id="538248891e"><path d="M 226.40625 334.160156 L 248.054688 334.160156 L 248.054688 355.808594 L 226.40625 355.808594 Z M 226.40625 334.160156 " clip-rule="nonzero"/></clipPath><clipPath id="befa7383b8"><path d="M 184.480469 286.464844 L 194.898438 286.464844 L 194.898438 308.113281 L 184.480469 308.113281 Z M 184.480469 286.464844 " clip-rule="nonzero"/></clipPath><clipPath id="a79feb25ad"><path d="M 184.480469 238.632812 L 206.128906 238.632812 L 206.128906 260.28125 L 184.480469 260.28125 Z M 184.480469 238.632812 " clip-rule="nonzero"/></clipPath><clipPath id="dc78c6ecab"><path d="M 184.480469 238.632812 L 194.898438 238.632812 L 194.898438 260.28125 L 184.480469 260.28125 Z M 184.480469 238.632812 " clip-rule="nonzero"/></clipPath><clipPath id="62ec16927d"><path d="M 184.480469 333.890625 L 206.128906 333.890625 L 206.128906 355.539062 L 184.480469 355.539062 Z M 184.480469 333.890625 " clip-rule="nonzero"/></clipPath><clipPath id="8d62aea5ba"><path d="M 183.492188 190.136719 L 205.140625 190.136719 L 205.140625 211.789062 L 183.492188 211.789062 Z M 183.492188 190.136719 " clip-rule="nonzero"/></clipPath><clipPath id="8cae6bc1c0"><path d="M 183.492188 141.644531 L 205.140625 141.644531 L 205.140625 163.292969 L 183.492188 163.292969 Z M 183.492188 141.644531 " clip-rule="nonzero"/></clipPath><clipPath id="154d7593eb"><path d="M 255.785156 374.984375 L 280.894531 374.984375 L 280.894531 410.488281 L 255.785156 410.488281 Z M 255.785156 374.984375 " clip-rule="nonzero"/></clipPath><clipPath id="6c2b8e852f"><path d="M 210.386719 308.113281 L 329.175781 308.113281 L 329.175781 362.613281 L 210.386719 362.613281 Z M 210.386719 308.113281 " clip-rule="nonzero"/></clipPath><clipPath id="2278ac1d20"><path d="M 269.777344 308.113281 L 329.167969 362.613281 L 210.386719 362.613281 Z M 269.777344 308.113281 " clip-rule="nonzero"/></clipPath></defs><g clip-path="url(#5565bed5bb)"><path fill="#644f41" d="M 268.699219 43.375 C 269.496094 43.800781 270.445312 43.921875 271.1875 44.488281 C 269.769531 44.316406 268.355469 44.128906 266.9375 44.007812 C 259.535156 43.355469 253.363281 45.914062 248.195312 51.097656 C 247.640625 51.664062 247.277344 51.648438 246.863281 51.011719 C 246.535156 50.515625 246.136719 50.050781 245.773438 49.570312 C 240.519531 42.875 233.550781 40.058594 225.0625 40.507812 C 226.34375 39.921875 229.003906 39.511719 231.425781 39.5625 C 237.527344 39.683594 242.785156 41.828125 247.226562 45.980469 C 247.78125 46.496094 248.089844 46.496094 248.714844 46.101562 C 254.679688 42.324219 261.09375 41.332031 267.9375 43.203125 C 268.199219 43.253906 268.441406 43.304688 268.699219 43.375 Z M 271.242188 44.488281 L 271.1875 44.488281 L 271.222656 44.507812 Z M 240.347656 59.785156 L 240.328125 59.765625 Z M 237.820312 59.304688 C 232.652344 58.941406 228.226562 60.574219 224.507812 64.125 C 224.128906 64.503906 223.90625 64.554688 223.4375 64.261719 C 219.667969 61.929688 215.605469 61.15625 211.214844 61.929688 C 209.46875 62.238281 207.617188 62.90625 206.789062 63.507812 C 212.789062 61.980469 218.164062 62.992188 222.902344 67.027344 C 223.230469 67.320312 223.574219 67.59375 223.886719 67.902344 C 224.285156 68.296875 224.542969 68.246094 224.855469 67.765625 C 227.792969 63.335938 231.839844 60.605469 237.21875 60.023438 C 238.253906 59.902344 239.292969 59.851562 240.328125 59.765625 C 239.707031 59.457031 239.015625 59.527344 238.390625 59.320312 C 238.183594 59.320312 238.011719 59.320312 237.820312 59.304688 Z M 262.234375 74.441406 C 259.449219 73.945312 256.941406 74.546875 254.695312 76.261719 C 254.453125 76.433594 254.351562 76.449219 254.109375 76.261719 C 252.273438 74.785156 249.957031 74.066406 247.605469 74.253906 C 246.640625 74.324219 245.601562 74.582031 245.117188 74.855469 C 248.472656 74.375 251.339844 75.265625 253.660156 77.738281 C 253.8125 77.910156 253.988281 78.082031 254.140625 78.269531 C 254.332031 78.511719 254.472656 78.492188 254.679688 78.253906 C 256.546875 76.023438 258.914062 74.785156 261.871094 74.785156 C 262.441406 74.785156 263.011719 74.820312 263.582031 74.820312 C 263.269531 74.613281 262.890625 74.613281 262.542969 74.460938 C 262.421875 74.476562 262.335938 74.460938 262.234375 74.441406 Z M 263.582031 74.855469 L 263.566406 74.855469 Z M 263.582031 74.855469 " fill-opacity="1" fill-rule="nonzero"/></g><g clip-path="url(#7f3b3aa336)"><path fill="#d7af4f" d="M 120.832031 88.347656 L 269.777344 88.347656 L 269.777344 410.679688 L 120.832031 410.679688 Z M 120.832031 88.347656 " fill-opacity="1" fill-rule="nonzero"/></g><g clip-path="url(#dc2c15fd71)"><path fill="#b79542" d="M 120.832031 88.347656 L 195.304688 88.347656 L 195.304688 410.386719 L 120.832031 410.386719 Z M 120.832031 88.347656 " fill-opacity="1" fill-rule="nonzero"/></g><g clip-path="url(#2dcdb7e3d1)"><path fill="#b79542" d="M 139.015625 58.90625 L 195.257812 58.90625 L 195.257812 88.347656 L 139.015625 88.347656 Z M 139.015625 58.90625 " fill-opacity="1" fill-rule="nonzero"/></g><g clip-path="url(#8e7d7133e9)"><path fill="#000000" d="M 226.40625 355.539062 L 310.332031 355.539062 L 310.332031 410.488281 L 226.40625 410.488281 Z M 226.40625 355.539062 " fill-opacity="1" fill-rule="nonzero"/></g><g clip-path="url(#e96264e382)"><path fill="#333333" d="M 139.207031 141.644531 L 160.859375 141.644531 L 160.859375 163.292969 L 139.207031 163.292969 Z M 139.207031 141.644531 " fill-opacity="1" fill-rule="nonzero"/></g><g clip-path="url(#6bc1eed076)"><path fill="#c08e31" d="M 227.777344 141.644531 L 249.425781 141.644531 L 249.425781 163.292969 L 227.777344 163.292969 Z M 227.777344 141.644531 " fill-opacity="1" fill-rule="nonzero"/></g><g clip-path="url(#955fc5ebf6)"><path fill="#a4792a" d="M 139.207031 191.003906 L 160.859375 191.003906 L 160.859375 212.652344 L 139.207031 212.652344 Z M 139.207031 191.003906 " fill-opacity="1" fill-rule="nonzero"/></g><g clip-path="url(#210c78eea5)"><path fill="#333333" d="M 139.207031 238.632812 L 160.859375 238.632812 L 160.859375 260.28125 L 139.207031 260.28125 Z M 139.207031 238.632812 " fill-opacity="1" fill-rule="nonzero"/></g><g clip-path="url(#4c643052dc)"><path fill="#333333" d="M 139.207031 286.261719 L 160.859375 286.261719 L 160.859375 307.910156 L 139.207031 307.910156 Z M 139.207031 286.261719 " fill-opacity="1" fill-rule="nonzero"/></g><g clip-path="url(#f98afc26d7)"><path fill="#333333" d="M 139.207031 333.890625 L 160.859375 333.890625 L 160.859375 355.539062 L 139.207031 355.539062 Z M 139.207031 333.890625 " fill-opacity="1" fill-rule="nonzero"/></g><g clip-path="url(#3cca7e5d10)"><path fill="#333333" d="M 227.777344 286.261719 L 249.425781 286.261719 L 249.425781 307.910156 L 227.777344 307.910156 Z M 227.777344 286.261719 " fill-opacity="1" fill-rule="nonzero"/></g><g clip-path="url(#1ef457bec7)"><path fill="#333333" d="M 227.777344 238.632812 L 249.425781 238.632812 L 249.425781 260.28125 L 227.777344 260.28125 Z M 227.777344 238.632812 " fill-opacity="1" fill-rule="nonzero"/></g><g clip-path="url(#94e4c45823)"><path fill="#333333" d="M 227.777344 191.003906 L 249.425781 191.003906 L 249.425781 212.652344 L 227.777344 212.652344 Z M 227.777344 191.003906 " fill-opacity="1" fill-rule="nonzero"/></g><g clip-path="url(#6ae2fcc3a3)"><path fill="#c08e31" d="M 184.480469 286.464844 L 206.128906 286.464844 L 206.128906 308.113281 L 184.480469 308.113281 Z M 184.480469 286.464844 " fill-opacity="1" fill-rule="nonzero"/></g><g clip-path="url(#538248891e)"><path fill="#c08e31" d="M 226.40625 334.160156 L 248.054688 334.160156 L 248.054688 355.808594 L 226.40625 355.808594 Z M 226.40625 334.160156 " fill-opacity="1" fill-rule="nonzero"/></g><g clip-path="url(#befa7383b8)"><path fill="#a4792a" d="M 184.480469 286.464844 L 194.898438 286.464844 L 194.898438 308.117188 L 184.480469 308.117188 Z M 184.480469 286.464844 " fill-opacity="1" fill-rule="nonzero"/></g><g clip-path="url(#a79feb25ad)"><path fill="#c08e31" d="M 184.480469 238.632812 L 206.128906 238.632812 L 206.128906 260.28125 L 184.480469 260.28125 Z M 184.480469 238.632812 " fill-opacity="1" fill-rule="nonzero"/></g><g clip-path="url(#dc78c6ecab)"><path fill="#a4792a" d="M 184.480469 238.632812 L 194.898438 238.632812 L 194.898438 260.285156 L 184.480469 260.285156 Z M 184.480469 238.632812 " fill-opacity="1" fill-rule="nonzero"/></g><g clip-path="url(#62ec16927d)"><path fill="#333333" d="M 184.480469 333.890625 L 206.128906 333.890625 L 206.128906 355.539062 L 184.480469 355.539062 Z M 184.480469 333.890625 " fill-opacity="1" fill-rule="nonzero"/><path fill="#2b2b2b" d="M 184.480469 333.890625 L 206.128906 333.890625 L 206.128906 355.539062 L 184.480469 355.539062 Z M 184.480469 333.890625 " fill-opacity="1" fill-rule="nonzero"/></g><g clip-path="url(#8d62aea5ba)"><path fill="#333333" d="M 183.492188 190.136719 L 205.140625 190.136719 L 205.140625 211.789062 L 183.492188 211.789062 Z M 183.492188 190.136719 " fill-opacity="1" fill-rule="nonzero"/><path fill="#2b2b2b" d="M 183.492188 190.136719 L 205.140625 190.136719 L 205.140625 211.789062 L 183.492188 211.789062 Z M 183.492188 190.136719 " fill-opacity="1" fill-rule="nonzero"/></g><g clip-path="url(#8cae6bc1c0)"><path fill="#333333" d="M 183.492188 141.644531 L 205.140625 141.644531 L 205.140625 163.292969 L 183.492188 163.292969 Z M 183.492188 141.644531 " fill-opacity="1" fill-rule="nonzero"/><path fill="#2b2b2b" d="M 183.492188 141.644531 L 205.140625 141.644531 L 205.140625 163.292969 L 183.492188 163.292969 Z M 183.492188 141.644531 " fill-opacity="1" fill-rule="nonzero"/></g><g clip-path="url(#154d7593eb)"><path fill="#d7af4f" d="M 255.785156 374.984375 L 280.894531 374.984375 L 280.894531 410.496094 L 255.785156 410.496094 Z M 255.785156 374.984375 " fill-opacity="1" fill-rule="nonzero"/></g><g clip-path="url(#6c2b8e852f)"><g clip-path="url(#2278ac1d20)"><path fill="#000000" d="M 210.386719 308.113281 L 329.175781 308.113281 L 329.175781 362.613281 L 210.386719 362.613281 Z M 210.386719 308.113281 " fill-opacity="1" fill-rule="nonzero"/></g></g></svg>